# xmcd CD database file
#
# Track frame offsets:
#	150
#	14555
#	33760
#	44679
#	59534
#	71450
#	90253
#	106084
#	115959
#	129782
#	148042
#	159608
#
# Disc length: 2271 seconds
#
# Revision: 0
# Processed by: cddbd v1.5.1PL0 Copyright (c) Steve Scherf et al.
# Submitted via: CDex 1.51
#
DISCID=9b08dd0c
DTITLE=Romà Alonso - Vivencias
DYEAR=0000
DGENRE=New Age
TTITLE0=El Paso De Las Lágrimas
TTITLE1=Cruzando El Río
TTITLE2=La Residencia
TTITLE3=Amanecer
TTITLE4=La Marcha
TTITLE5=Leyenda
TTITLE6=Navegando
TTITLE7=Un Mar De Estrellas
TTITLE8=Senda
TTITLE9=Roraima
TTITLE10=El Libro De Los Sentimientos
TTITLE11=Romà Alonso - Vivencias - 12 - Una Mirada
EXTD=YEAR: 0000
EXTT0=
EXTT1=
EXTT2=
EXTT3=
EXTT4=
EXTT5=
EXTT6=
EXTT7=
EXTT8=
EXTT9=
EXTT10=
EXTT11=
PLAYORDER=
